<svg width="64" height="64" viewBox="0 0 64 64" fill="none" xmlns="http://www.w3.org/2000/svg">
<path fill-rule="evenodd" clip-rule="evenodd" d="M51.3336 9.0112C50.3468 8.35188 49.1868 8 48 8C46.4088 8 44.8824 8.63216 43.7572 9.75736C42.632 10.8826 42 12.4087 42 14C42 15.1867 42.352 16.3467 43.0112 17.3334C43.6704 18.3201 44.6076 19.0892 45.704 19.5433C46.8004 19.9974 48.0068 20.1162 49.1704 19.8847C50.3344 19.6532 51.4036 19.0818 52.2428 18.2426C53.0816 17.4035 53.6532 16.3344 53.8848 15.1706C54.1164 14.0066 53.9976 12.8002 53.5432 11.7039C53.0892 10.6076 52.32 9.67048 51.3336 9.0112ZM42.4444 5.68532C44.0888 4.58648 46.022 4 48 4C50.652 4 53.1956 5.05356 55.0712 6.92892C56.9464 8.80428 58 11.3478 58 14C58 15.9778 57.4136 17.9112 56.3148 19.5557C55.216 21.2002 53.654 22.4819 51.8268 23.2388C49.9996 23.9957 47.9888 24.1937 46.0492 23.8078C44.1092 23.422 42.3276 22.4696 40.9288 21.0711C39.5304 19.6726 38.578 17.8907 38.1922 15.9509C37.8063 14.0111 38.0043 12.0004 38.7612 10.1732C39.5181 8.34592 40.8 6.78412 42.4444 5.68532ZM48 28H52C54.6512 28.0031 57.1928 29.0576 59.0676 30.9323C60.9424 32.807 61.9968 35.3488 62 38V46H58V38C57.9984 36.4092 57.3656 34.8841 56.2408 33.7593C55.116 32.6344 53.5908 32.0018 52 32H48V28ZM46 60H42V56C41.9984 54.4092 41.3656 52.884 40.2408 51.7592C39.1159 50.6344 37.5908 50.0016 36 50H28C26.4092 50.0016 24.8841 50.6344 23.7593 51.7592C22.6344 52.884 22.0018 54.4092 22 56V60H18V56C18.0031 53.3488 19.0577 50.8072 20.9324 48.9324C22.8071 47.0576 25.3488 46.0032 28 46H36C38.6512 46.0032 41.1928 47.0576 43.0676 48.9324C44.9424 50.8072 45.9968 53.3488 46 56V60ZM35.3334 27.0112C34.3467 26.3519 33.1867 26 32 26C30.4087 26 28.8826 26.6322 27.7574 27.7574C26.6322 28.8826 26 30.4087 26 32C26 33.1867 26.3519 34.3467 27.0112 35.3334C27.6705 36.3201 28.6076 37.0892 29.7039 37.5433C30.8003 37.9974 32.0067 38.1162 33.1706 37.8847C34.3344 37.6532 35.4035 37.0818 36.2426 36.2426C37.0818 35.4035 37.6532 34.3344 37.8847 33.1706C38.1162 32.0067 37.9974 30.8002 37.5433 29.7039C37.0892 28.6076 36.3201 27.6705 35.3334 27.0112ZM26.4443 23.6853C28.0888 22.5865 30.0222 22 32 22C34.6522 22 37.1957 23.0536 39.0711 24.9289C40.9464 26.8043 42 29.3478 42 32C42 33.9778 41.4136 35.9112 40.3148 37.5557C39.2159 39.2002 37.6541 40.482 35.8268 41.2388C33.9996 41.9956 31.9889 42.1936 30.0491 41.808C28.1093 41.422 26.3275 40.4696 24.9289 39.0711C23.5304 37.6726 22.578 35.8907 22.1922 33.9509C21.8063 32.0111 22.0043 30.0004 22.7612 28.1732C23.5181 26.3459 24.7998 24.7841 26.4443 23.6853ZM16 28H12C9.3488 28.0031 6.80708 29.0577 4.9324 30.9324C3.05769 32.8071 2.00312 35.3488 2 38V46H6V38C6.00176 36.4092 6.63444 34.8841 7.75928 33.7593C8.88412 32.6344 10.4092 32.0018 12 32H16V28ZM19.3334 9.0112C18.3467 8.35188 17.1867 8 16 8C14.4087 8 12.8826 8.63216 11.7574 9.75736C10.6321 10.8826 10 12.4087 10 14C10 15.1867 10.3519 16.3467 11.0112 17.3334C11.6704 18.3201 12.6075 19.0892 13.7039 19.5433C14.8002 19.9974 16.0066 20.1162 17.1705 19.8847C18.3344 19.6532 19.4035 19.0818 20.2426 18.2426C21.0818 17.4035 21.6532 16.3344 21.8847 15.1706C22.1162 14.0066 21.9974 12.8002 21.5433 11.7039C21.0892 10.6076 20.3201 9.67048 19.3334 9.0112ZM10.4443 5.68532C12.0888 4.58648 14.0222 4 16 4C18.6522 4 21.1957 5.05356 23.071 6.92892C24.9464 8.80428 26 11.3478 26 14C26 15.9778 25.4135 17.9112 24.3147 19.5557C23.2159 21.2002 21.6541 22.4819 19.8268 23.2388C17.9996 23.9957 15.9889 24.1937 14.0491 23.8078C12.1093 23.422 10.3274 22.4696 8.92892 21.0711C7.5304 19.6726 6.578 17.8907 6.19212 15.9509C5.80628 14.0111 6.00432 12.0004 6.7612 10.1732C7.51808 8.34592 8.7998 6.78412 10.4443 5.68532Z" fill="#0000FF"/>
</svg>
