<svg width="64" height="64" viewBox="0 0 64 64" fill="none" xmlns="http://www.w3.org/2000/svg">
<path d="M31.96 4.00002C31.4 4.00002 30.92 4.20002 30.52 4.56002C30.12 4.92002 29.92 5.44002 29.92 5.96002V20.14C28.12 20.42 26.44 21.14 25 22.22L15.56 12.78C15.28 12.5 14.92 12.26 14.56 12.1C14.16 11.94 13.8 11.86 13.4 11.86C13 11.86 12.6 11.94 12.24 12.1C11.88 12.22 11.56 12.46 11.28 12.74C8.28005 15.94 6.12005 19.78 4.88005 23.98C3.64005 28.14 3.40005 32.58 4.20005 36.86C4.96005 41.14 6.76005 45.18 9.36005 48.7C11.96 52.18 15.36 55.02 19.28 56.94C20.48 57.54 21.76 58.06 23.04 58.46C27.76 59.94 32.84 60.14 37.72 59.06C42.56 57.94 47.04 55.58 50.68 52.18C50.96 51.9 51.16 51.58 51.32 51.22C51.44 50.86 51.52 50.46 51.56 50.1C51.56 49.7 51.48 49.3 51.32 48.94C51.16 48.58 50.92 48.26 50.68 47.98L41.28 38.58C42.32 37.1 43.04 35.42 43.32 33.62H57.48C58 33.62 58.48 33.38 58.88 33.02C59.24 32.62 59.44 32.1 59.44 31.58C59.4 24.14 56.44 17.02 51.2 11.78C45.92 6.48002 38.8 3.52002 31.4 3.52002L31.96 4.00002ZM31.96 24C33.52 24 35.08 24.44 36.4 25.32C37.68 26.16 38.72 27.44 39.32 28.88C39.92 30.32 40.08 31.92 39.76 33.48C39.44 35 38.68 36.44 37.56 37.56C36.44 38.64 35 39.44 33.44 39.72C31.88 40 30.24 39.84 28.8 39.24C27.32 38.6 26.08 37.6 25.2 36.28C24.32 34.96 23.84 33.4 23.84 31.8C23.84 29.64 24.68 27.64 26.16 26.12C27.64 24.6 29.68 23.76 31.8 23.76L31.96 24ZM13.6 16.48L22.16 25.04C20.68 27.04 19.88 29.44 19.88 31.96C19.84 34.44 20.64 36.84 22.08 38.88L13.52 47.4C9.84005 43.04 7.84005 37.56 7.84005 31.88C7.80005 26.2 9.84004 20.68 13.48 16.36L13.6 16.48ZM16.44 50.28L24.96 41.728C26.4 42.768 28.12 43.448 29.88 43.768V55.848C24.88 55.448 20.16 53.488 16.36 50.248L16.32 50.208L16.44 50.28ZM33.92 55.84V43.72C35.68 43.4 37.36 42.68 38.84 41.64L47.4 50.2C43.6 53.4 38.88 55.36 33.88 55.76L33.92 55.84ZM43.72 29.92C43.28 27.44 42.12 25.2 40.36 23.44C38.6 21.68 36.32 20.48 33.88 20.08V7.96002C39.52 8.44002 44.8 10.88 48.84 14.88C52.84 18.88 55.28 24.16 55.76 29.84H43.64L43.72 29.92Z" fill="#0000FF"/>
</svg>
