<svg width="64" height="64" viewBox="0 0 64 64" fill="none" xmlns="http://www.w3.org/2000/svg">
<path d="M20.12 35.76C20.7358 35.9098 21.3664 35.9903 22 36C23.5887 35.9996 25.1414 35.5261 26.46 34.64L32.9 40.38C32.3898 41.3488 32.0904 42.4144 32.0215 43.5072C31.9526 44.6 32.1156 45.6948 32.5 46.72C32.9037 47.8816 33.5698 48.9344 34.4465 49.7968C35.3232 50.6592 36.3869 51.308 37.555 51.6924C38.723 52.0768 39.964 52.1872 41.1816 52.014C42.3992 51.8412 43.5604 51.39 44.5752 50.6952C45.59 50.0008 46.4312 49.0816 47.0328 48.0092C47.6348 46.9368 47.9812 45.74 48.0456 44.512C48.11 43.284 47.8904 42.0576 47.4036 40.928C46.9172 39.7988 46.1768 38.7968 45.24 38L50.32 27.82C51.3116 28.0436 52.338 28.065 53.338 27.8829C54.338 27.7008 55.2908 27.3189 56.14 26.76C57.582 25.8801 58.708 24.5664 59.3576 23.0071C60.0068 21.4478 60.1464 19.723 59.7552 18.0798C59.3644 16.4365 58.4632 14.9592 57.1812 13.8594C55.8992 12.7596 54.302 12.0938 52.6184 11.9574C50.9348 11.821 49.2516 12.2209 47.8092 13.1C46.3668 13.979 45.2396 15.2921 44.5892 16.851C43.9388 18.4098 43.7988 20.1346 44.1884 21.7781C44.5784 23.4216 45.4788 24.8994 46.76 26L41.68 36.18C41.1284 36.0587 40.5648 35.9984 40 36C38.4113 36.0004 36.8586 36.4739 35.54 37.36L29.1 31.62C29.6102 30.6512 29.9096 29.5855 29.9785 28.4928C30.0474 27.4001 29.8844 26.3052 29.5 25.28C29.0993 24.1268 28.4399 23.0807 27.5725 22.2217C26.705 21.3627 25.6525 20.7136 24.4955 20.3241C23.3385 19.9346 22.1077 19.8152 20.8974 19.9748C19.6871 20.1344 18.5294 20.5688 17.5128 21.2449C16.4964 21.921 15.6481 22.8208 15.033 23.8753C14.4179 24.9298 14.0523 26.1111 13.9642 27.3287C13.876 28.5463 14.0678 29.7679 14.5246 30.9C14.9815 32.0321 15.6914 33.0446 16.6 33.86L8 50V4H4V56C4 57.0608 4.42144 58.0784 5.17156 58.8284C5.92172 59.5784 6.93912 60 8 60H60V56H9.34L20.12 35.76ZM52 16C52.7912 16 53.5644 16.2346 54.2224 16.6741C54.88 17.1136 55.3928 17.7384 55.6956 18.4693C55.9984 19.2002 56.0776 20.0044 55.9232 20.7804C55.7688 21.5563 55.388 22.269 54.8284 22.8284C54.2692 23.3878 53.5564 23.7688 52.7804 23.9232C52.0044 24.0775 51.2 23.9983 50.4692 23.6955C49.7384 23.3928 49.1136 22.8801 48.674 22.2223C48.2344 21.5645 48 20.7911 48 20C48 18.9391 48.4216 17.9217 49.1716 17.1716C49.9216 16.4214 50.9392 16 52 16ZM44 44C44 44.7912 43.7656 45.5644 43.326 46.2224C42.8864 46.88 42.2616 47.3928 41.5308 47.6956C40.8 47.9984 39.9956 48.0776 39.2196 47.9232C38.4437 47.7688 37.731 47.388 37.1716 46.8284C36.6122 46.2692 36.2312 45.5564 36.0768 44.7804C35.9225 44.0044 36.0017 43.2 36.3045 42.4692C36.6072 41.7384 37.1199 41.1136 37.7777 40.674C38.4355 40.2344 39.2089 40 40 40C41.0608 40 42.0784 40.4216 42.8284 41.1716C43.5784 41.9216 44 42.9392 44 44ZM22 24C22.7911 24 23.5645 24.2346 24.2223 24.6741C24.8801 25.1136 25.3928 25.7384 25.6955 26.4693C25.9983 27.2002 26.0775 28.0044 25.9232 28.7804C25.7688 29.5563 25.3878 30.269 24.8284 30.8284C24.269 31.3878 23.5563 31.7688 22.7804 31.9232C22.0044 32.0775 21.2002 31.9983 20.4693 31.6955C19.7384 31.3928 19.1136 30.8801 18.6741 30.2223C18.2346 29.5645 18 28.7911 18 28C18 26.9391 18.4214 25.9217 19.1716 25.1716C19.9217 24.4214 20.9391 24 22 24Z" fill="#0000FF"/>
</svg>
