<svg width="64" height="64" viewBox="0 0 64 64" fill="none" xmlns="http://www.w3.org/2000/svg">
<path fill-rule="evenodd" clip-rule="evenodd" d="M41.5588 25.502L45.4336 26.498C44.5476 29.9439 42.656 33.0482 40 35.4156V60L28 52L16 60V35.378C12.9926 32.6912 10.9757 29.0713 10.2736 25.1001C9.5714 21.1289 10.2247 17.0369 12.1284 13.4817C14.0322 9.92656 17.0759 7.1146 20.7704 5.4978C24.4649 3.88096 28.5957 3.55312 32.499 4.56696L31.501 8.43996C28.8228 7.75156 26.0007 7.8724 23.3911 8.7872C20.7816 9.702 18.5017 11.3697 16.8396 13.5796C15.1774 15.7896 14.2075 18.4426 14.0524 21.2035C13.8973 23.9644 14.564 26.7093 15.9682 29.0915C17.3724 31.4736 19.4512 33.3862 21.9419 34.5875C24.4326 35.7888 27.2234 36.2249 29.9619 35.8408C32.7003 35.4566 35.2635 34.2695 37.3276 32.4294C39.3916 30.5892 40.864 28.1785 41.5588 25.502ZM28 47.1924L36 52.5252V38.1124C33.516 39.3555 30.7762 40.0016 27.9986 39.9996C25.2209 39.9974 22.482 39.3469 20 38.1V52.5252L28 47.1924ZM49.186 10L46 4L43 10L36 10.828L41 15.334L40 22L46 18.25L52 22L51 15.334L56 10.828L49.186 10Z" fill="#0000FF"/>
</svg>
