<svg width="64" height="64" viewBox="0 0 64 64" fill="none" xmlns="http://www.w3.org/2000/svg">
<path fill-rule="evenodd" clip-rule="evenodd" d="M19.6484 53.414L32 60L44.3516 53.4136C47.8732 51.5404 50.818 48.7436 52.87 45.3236C54.9224 41.9032 56.0044 37.9887 56 34V8C55.9988 6.93948 55.5772 5.92276 54.8272 5.17284C54.0772 4.42296 53.0604 4.00116 52 4H12C10.9395 4.00116 9.92277 4.42296 9.17285 5.17284C8.42297 5.92276 8.00117 6.93948 8.00001 8V34C7.99565 37.9888 9.07765 41.9032 11.1298 45.3236C13.182 48.744 16.1269 51.5408 19.6484 53.414ZM12 34V8H52V34C52.0036 37.2636 51.118 40.4664 49.4388 43.2652C47.7596 46.0636 45.35 48.352 42.4688 49.8848L32 55.4664L21.5312 49.8848C18.6499 48.352 16.2403 46.0636 14.5611 43.2652C12.8819 40.4664 11.9965 37.2636 12 34ZM32 12V50.554L40.6 45.9556C42.8356 44.7608 44.7048 42.9808 46.0084 40.8064C47.3116 38.6322 48 36.1447 48 33.6096V12H32Z" fill="#0000FF"/>
</svg>
