<svg width="56" height="54" viewBox="0 0 56 54" fill="none" xmlns="http://www.w3.org/2000/svg">
<path d="M48 18H36V6C35.9982 4.40924 35.3656 2.88412 34.2407 1.75928C33.1159 0.63444 31.5908 0.00176 30 0H25.7344C24.7726 0.00384 23.844 0.35256 23.1174 0.9828C22.3907 1.613 21.9142 2.48296 21.7744 3.4346L20.0838 15.2676L12.9296 26H0V54H42C45.7116 53.996 49.2704 52.5196 51.8948 49.8948C54.5196 47.2704 55.996 43.7116 56 40V26C55.9976 23.879 55.154 21.8456 53.6544 20.3458C52.1544 18.846 50.1212 18.0024 48 18ZM12 50H4V30H12V50ZM52 40C51.9968 42.6512 50.9424 45.1932 49.0676 47.0676C47.1932 48.9424 44.6512 49.9968 42 50H16V28.6054L23.9156 16.7324L25.7344 4H30C30.5303 4.00044 31.0388 4.21128 31.4138 4.58624C31.7887 4.96124 31.9996 5.46968 32 6V22H48C49.0604 22.0013 50.0772 22.4232 50.8268 23.173C51.5768 23.9229 51.9988 24.9396 52 26V40Z" fill="#0000FF"/>
</svg>
