<svg width="64" height="64" viewBox="0 0 64 64" fill="none" xmlns="http://www.w3.org/2000/svg">
<path fill-rule="evenodd" clip-rule="evenodd" d="M50 10H46V32H50V10ZM60 16H56V32H60V16ZM36 20H40V32H36V20ZM32 60H28V48C27.9982 46.4092 27.3656 44.884 26.2407 43.7592C25.1159 42.6344 23.5908 42.0016 22 42H14C12.4092 42.0016 10.8841 42.6344 9.75928 43.7592C8.63444 44.884 8.00176 46.4092 8 48V60H4V48C4.00312 45.3488 5.05768 42.8072 6.9324 40.9324C8.80708 39.0577 11.3488 38.0031 14 38H22C24.6512 38.0031 27.1929 39.0577 29.0676 40.9324C30.9423 42.8072 31.9969 45.3488 32 48V60ZM21.3334 19.0112C20.3467 18.3519 19.1867 18 18 18C16.4087 18 14.8826 18.6321 13.7574 19.7574C12.6321 20.8826 12 22.4087 12 24C12 25.1867 12.3519 26.3467 13.0112 27.3334C13.6705 28.3201 14.6075 29.0892 15.7039 29.5433C16.8002 29.9974 18.0066 30.1162 19.1705 29.8847C20.3344 29.6532 21.4035 29.0818 22.2426 28.2426C23.0818 27.4035 23.6532 26.3344 23.8847 25.1705C24.1162 24.0066 23.9974 22.8002 23.5433 21.7039C23.0892 20.6076 22.3201 19.6705 21.3334 19.0112ZM12.4443 15.6853C14.0888 14.5865 16.0222 14 18 14C19.3132 14 20.6136 14.2586 21.8268 14.7612C23.0401 15.2638 24.1425 16.0004 25.0711 16.9289C25.9996 17.8575 26.7362 18.9599 27.2388 20.1732C27.7413 21.3864 28 22.6868 28 24C28 25.9778 27.4135 27.9112 26.3147 29.5557C25.2159 31.2002 23.6541 32.4819 21.8268 33.2388C19.9996 33.9957 17.9889 34.1937 16.0491 33.8078C14.1093 33.422 12.3274 32.4696 10.9289 31.0711C9.5304 29.6726 8.578 27.8907 8.19216 25.9509C7.80628 24.0111 8.00432 22.0004 8.7612 20.1732C9.51808 18.3459 10.7998 16.7841 12.4443 15.6853Z" fill="#0000FF"/>
</svg>
