<svg width="24" height="24" viewBox="0 0 24 24" fill="none" xmlns="http://www.w3.org/2000/svg">
<path fill-rule="evenodd" clip-rule="evenodd" d="M18.9 6.165C20.8485 7.56527 22.3451 9.5049 23.205 11.745C23.2646 11.9098 23.2646 12.0902 23.205 12.255C22.3229 14.5368 20.7915 16.5101 18.8001 17.931C16.8087 19.3518 14.4447 20.1581 12 20.25C10.0231 20.2181 8.08796 19.6755 6.38255 18.675L2.55755 22.5L1.50005 21.4425L21.4425 1.5L22.5 2.5575L18.9 6.165ZM14.5914 13.4937C14.856 13.0401 14.9969 12.5251 15 12C14.9946 11.4717 14.8497 10.9543 14.58 10.5L10.5 14.58C10.9548 14.8425 11.4705 14.9812 11.9955 14.982C12.5206 14.9828 13.0367 14.8457 13.4922 14.5845C13.9478 14.3234 14.3268 13.9472 14.5914 13.4937ZM7.50005 17.565C8.88297 18.316 10.4266 18.7225 12 18.75C15.975 18.75 20.175 15.8025 21.6975 12C20.8868 10.0766 19.541 8.42623 17.82 7.245L15.6675 9.3975C16.2687 10.264 16.5465 11.3142 16.4523 12.3646C16.3583 13.415 15.8981 14.3991 15.1523 15.1448C14.4066 15.8906 13.4226 16.3507 12.3722 16.4448C11.3217 16.539 10.2716 16.2612 9.40505 15.66L7.50005 17.565ZM3.93005 16.8825L5.00255 15.8175C3.82821 14.7631 2.90553 13.4585 2.30255 12C3.82505 8.1975 8.02505 5.25 12 5.25C13.023 5.2635 14.0366 5.44596 15 5.79L16.1625 4.62C14.8445 4.06299 13.4308 3.7675 12 3.75C9.55544 3.84193 7.19133 4.64817 5.19995 6.06906C3.20856 7.48996 1.67717 9.46323 0.795047 11.745C0.735473 11.9098 0.735473 12.0902 0.795047 12.255C1.46123 14.0228 2.53536 15.6083 3.93005 16.8825ZM9.00005 11.7978C9.0522 11.0791 9.36132 10.4032 9.87086 9.89365C10.3804 9.3841 11.0563 9.075 11.775 9.02285L13.1325 7.65784C12.3719 7.45755 11.572 7.46016 10.8126 7.66539C10.0533 7.87062 9.36096 8.27133 8.80475 8.82754C8.24853 9.38376 7.84784 10.0761 7.64259 10.8354C7.43736 11.5948 7.43475 12.3947 7.63505 13.1553L9.00005 11.7978Z" fill="#1A2030"/>
</svg>
