<svg width="24" height="24" viewBox="0 0 24 24" fill="none" xmlns="http://www.w3.org/2000/svg">
<path fill-rule="evenodd" clip-rule="evenodd" d="M18.8001 6.06906C20.7915 7.48996 22.3229 9.46323 23.205 11.745C23.2646 11.9098 23.2646 12.0902 23.205 12.255C22.3229 14.5368 20.7915 16.5101 18.8001 17.931C16.8087 19.3518 14.4447 20.1581 12 20.25C9.55544 20.1581 7.19133 19.3518 5.19994 17.931C3.20856 16.5101 1.67717 14.5368 0.795047 12.255C0.735473 12.0902 0.735473 11.9098 0.795047 11.745C1.67717 9.46323 3.20856 7.48996 5.19994 6.06906C7.19133 4.64817 9.55544 3.84194 12 3.75C14.4447 3.84194 16.8087 4.64817 18.8001 6.06906ZM2.30255 12C3.82505 15.8025 8.02504 18.75 12 18.75C15.975 18.75 20.175 15.8025 21.6975 12C20.175 8.1975 15.975 5.25 12 5.25C8.02504 5.25 3.82505 8.1975 2.30255 12ZM9.49998 8.25838C10.24 7.76393 11.11 7.5 12 7.5C13.1935 7.5 14.3381 7.97411 15.182 8.81802C16.0259 9.66194 16.5 10.8065 16.5 12C16.5 12.89 16.2362 13.76 15.7416 14.5001C15.2472 15.2401 14.5444 15.8169 13.7221 16.1574C12.8999 16.498 11.9951 16.5871 11.1221 16.4136C10.2492 16.2399 9.44741 15.8113 8.81807 15.1819C8.18873 14.5526 7.76015 13.7508 7.58652 12.8779C7.41288 12.005 7.502 11.1002 7.84259 10.2779C8.18319 9.45566 8.75996 8.75286 9.49998 8.25838ZM10.3333 14.4944C10.8267 14.824 11.4067 15 12 15C12.7957 15 13.5588 14.6839 14.1214 14.1213C14.684 13.5587 15 12.7956 15 12C15 11.4067 14.8241 10.8266 14.4945 10.3333C14.1648 9.83994 13.6963 9.45543 13.1481 9.22836C12.5999 9.0013 11.9967 8.94189 11.4148 9.05765C10.8328 9.1734 10.2983 9.45912 9.87873 9.87868C9.45917 10.2982 9.17345 10.8328 9.05769 11.4147C8.94194 11.9967 9.00135 12.5999 9.2284 13.1481C9.45547 13.6962 9.83999 14.1648 10.3333 14.4944Z" fill="#1A2030"/>
</svg>
